<svg aria-hidden="true" style="position: absolute; width: 0; height: 0; overflow: hidden;" version="1.1" xmlns="http://www.w3.org/2000/svg" xmlns:xlink="http://www.w3.org/1999/xlink">
    <defs>
        <symbol id="icon-close" viewBox="0 0 32 32">
            <path d="M2.519 2l26.963 28"></path>
            <path d="M2 29.481l28-26.963"></path>
        </symbol>
        <symbol id="icon-burger" viewBox="0 0 46 32">
            <path d="M0 2.286h45.714"></path>
            <path d="M0 16h45.714"></path>
            <path d="M0 29.714h45.714"></path>
        </symbol>
        <symbol id="burger-menu" viewBox="0 0 32 32">
            <path d="M32 9c0 0.552-0.448 1-1 1h-30c-0.552 0-1-0.448-1-1s0.448-1 1-1h30c0.552 0 1 0.448 1 1zM32 25c0 0.552-0.448 1-1 1h-30c-0.552 0-1-0.448-1-1s0.448-1 1-1h30c0.552 0 1 0.448 1 1zM32 16.992c0 0.548-0.444 0.992-0.992 0.992h-30.016c-0.548 0-0.992-0.444-0.992-0.992s0.444-0.992 0.992-0.992h30.016c0.548 0 0.992 0.444 0.992 0.992z"></path>
            <symbol id="icon-close-window" viewBox="0 0 32 32">
                <path d="M17.253 16l6.48-6.48c0.146-0.17 0.222-0.389 0.213-0.612s-0.101-0.436-0.26-0.594c-0.158-0.158-0.37-0.251-0.594-0.26s-0.442 0.068-0.612 0.213l-6.48 6.48-6.48-6.489c-0.17-0.146-0.389-0.222-0.612-0.213s-0.436 0.101-0.594 0.26c-0.158 0.158-0.251 0.371-0.26 0.594s0.068 0.442 0.213 0.612l6.48 6.489-6.489 6.48c-0.093 0.080-0.169 0.178-0.222 0.288s-0.083 0.23-0.088 0.353c-0.005 0.122 0.016 0.244 0.061 0.359s0.113 0.218 0.199 0.304 0.19 0.154 0.304 0.199c0.114 0.045 0.236 0.065 0.359 0.061s0.243-0.035 0.353-0.088c0.11-0.053 0.208-0.129 0.288-0.222l6.489-6.48 6.48 6.48c0.17 0.146 0.389 0.222 0.612 0.213s0.436-0.101 0.594-0.26c0.158-0.158 0.251-0.37 0.26-0.594s-0.067-0.442-0.213-0.612l-6.48-6.48z"></path>
            </symbol>
        </defs>
    </svg>