<svg aria-hidden="true" style="position: absolute; width: 0; height: 0; overflow: hidden;" version="1.1" xmlns="http://www.w3.org/2000/svg" xmlns:xlink="http://www.w3.org/1999/xlink">
    <defs>
        <symbol id="icon-close" viewBox="0 0 32 32">
            <path d="M2.519 2l26.963 28"></path>
            <path d="M2 29.481l28-26.963"></path>
        </symbol>
        <symbol id="icon-burger" viewBox="0 0 46 32">
            <path d="M0 2.286h45.714"></path>
            <path d="M0 16h45.714"></path>
            <path d="M0 29.714h45.714"></path>
        </symbol>
        <symbol id="burger-menu" viewBox="0 0 32 32">
            <path d="M32 9c0 0.552-0.448 1-1 1h-30c-0.552 0-1-0.448-1-1s0.448-1 1-1h30c0.552 0 1 0.448 1 1zM32 25c0 0.552-0.448 1-1 1h-30c-0.552 0-1-0.448-1-1s0.448-1 1-1h30c0.552 0 1 0.448 1 1zM32 16.992c0 0.548-0.444 0.992-0.992 0.992h-30.016c-0.548 0-0.992-0.444-0.992-0.992s0.444-0.992 0.992-0.992h30.016c0.548 0 0.992 0.444 0.992 0.992z"></path>
            <symbol id="icon-close-window" viewBox="0 0 32 32">
                <path d="M17.253 16l6.48-6.48c0.146-0.17 0.222-0.389 0.213-0.612s-0.101-0.436-0.26-0.594c-0.158-0.158-0.37-0.251-0.594-0.26s-0.442 0.068-0.612 0.213l-6.48 6.48-6.48-6.489c-0.17-0.146-0.389-0.222-0.612-0.213s-0.436 0.101-0.594 0.26c-0.158 0.158-0.251 0.371-0.26 0.594s0.068 0.442 0.213 0.612l6.48 6.489-6.489 6.48c-0.093 0.080-0.169 0.178-0.222 0.288s-0.083 0.23-0.088 0.353c-0.005 0.122 0.016 0.244 0.061 0.359s0.113 0.218 0.199 0.304 0.19 0.154 0.304 0.199c0.114 0.045 0.236 0.065 0.359 0.061s0.243-0.035 0.353-0.088c0.11-0.053 0.208-0.129 0.288-0.222l6.489-6.48 6.48 6.48c0.17 0.146 0.389 0.222 0.612 0.213s0.436-0.101 0.594-0.26c0.158-0.158 0.251-0.37 0.26-0.594s-0.067-0.442-0.213-0.612l-6.48-6.48z"></path>
            </symbol>
            <symbol id="icon-close-button" viewBox="0 0 32 32">
                <path d="M26.667 7.303l-1.97-1.97-7.808 7.808-7.808-7.808-1.97 1.97 7.808 7.808-7.808 7.808 1.97 1.97 7.808-7.808 7.808 7.808 1.97-1.97-7.808-7.808 7.808-7.808z"></path>
            </symbol>
            <symbol id="icon-email" viewBox="0 0 32 32">
                <path d="M26.667 5.333h-21.333c-1.467 0-2.652 1.2-2.652 2.667l-0.014 16c0 1.467 1.2 2.667 2.667 2.667h21.333c1.467 0 2.667-1.2 2.667-2.667v-16c0-1.467-1.2-2.667-2.667-2.667zM26.133 11.001l-9.426 5.892c-0.201 0.126-0.446 0.2-0.708 0.2s-0.506-0.075-0.713-0.204l0.006 0.003-9.426-5.892c-0.336-0.201-0.557-0.562-0.557-0.975 0-0.625 0.507-1.132 1.132-1.132 0.233 0 0.449 0.070 0.629 0.19l-0.004-0.003 8.933 5.586 8.933-5.588c0.176-0.118 0.392-0.188 0.624-0.188 0.625 0 1.132 0.507 1.132 1.132 0 0.413-0.221 0.775-0.552 0.972l-0.005 0.003z"></path>
            </symbol>
            <symbol id="icon-phone" viewBox="0 0 32 32">
                <path d="M24.882 19.774l-3.268-0.373c-0.090-0.011-0.194-0.018-0.299-0.018-0.707 0-1.348 0.287-1.811 0.75l-2.368 2.368c-3.669-1.894-6.585-4.81-8.427-8.372l-0.051-0.108 2.382-2.377c0.463-0.463 0.75-1.103 0.75-1.81 0-0.106-0.006-0.21-0.019-0.312l0.001 0.012-0.373-3.243c-0.155-1.287-1.24-2.276-2.557-2.276-0.001 0-0.002 0-0.003 0h-2.226c-1.454 0-2.663 1.209-2.574 2.663 0.683 10.987 9.47 19.76 20.444 20.443 1.452 0.089 2.663-1.12 2.663-2.574v-2.226c0-0.004 0-0.008 0-0.012 0-1.308-0.985-2.386-2.253-2.532l-0.012-0.001z"></path>
            </symbol>
            <symbol id="icon-person" viewBox="0 0 32 32">
                <path d="M16 16c2.946 0 5.333-2.388 5.333-5.333s-2.388-5.333-5.333-5.333v0c-2.946 0-5.333 2.388-5.333 5.333s2.388 5.333 5.333 5.333v0zM16 18.667c-3.561 0-10.667 1.787-10.667 5.333v1.333c0 0.732 0.599 1.333 1.333 1.333h18.667c0.732 0 1.333-0.601 1.333-1.333v-1.333c0-3.547-7.108-5.333-10.667-5.333z">
                </pat
            </defs>
        </svg>